<svg width="27" height="31" viewBox="0 0 27 31" fill="none" xmlns="http://www.w3.org/2000/svg">
<path d="M13.5 0.875C17.0912 0.875 20 3.78375 20 7.375C20 10.9663 17.0912 13.875 13.5 13.875C9.90875 13.875 7 10.9663 7 7.375C7 3.78375 9.90875 0.875 13.5 0.875ZM20 18.0025C20 19.725 19.545 23.7388 16.4413 28.2237L15.125 20.375L16.6525 17.32C15.645 17.2062 14.5887 17.125 13.5 17.125C12.4113 17.125 11.355 17.2062 10.3475 17.32L11.875 20.375L10.5587 28.2237C7.455 23.7388 7 19.725 7 18.0025C3.11625 19.14 0.5 21.1875 0.5 23.625V30.125H26.5V23.625C26.5 21.1875 23.9 19.14 20 18.0025Z" fill="white"/>
</svg>
