<svg width="39" height="25" viewBox="0 0 39 25" fill="none" xmlns="http://www.w3.org/2000/svg">
<path d="M19.5 0.9375C21.0084 0.9375 22.4551 1.53672 23.5217 2.60333C24.5883 3.66994 25.1875 5.11658 25.1875 6.625C25.1875 8.13342 24.5883 9.58006 23.5217 10.6467C22.4551 11.7133 21.0084 12.3125 19.5 12.3125C17.9916 12.3125 16.5449 11.7133 15.4783 10.6467C14.4117 9.58006 13.8125 8.13342 13.8125 6.625C13.8125 5.11658 14.4117 3.66994 15.4783 2.60333C16.5449 1.53672 17.9916 0.9375 19.5 0.9375ZM8.125 5C9.035 5 9.88 5.24375 10.6112 5.6825C10.3675 8.00625 11.05 10.3138 12.4475 12.1175C11.635 13.6775 10.01 14.75 8.125 14.75C6.83207 14.75 5.59209 14.2364 4.67785 13.3221C3.76361 12.4079 3.25 11.1679 3.25 9.875C3.25 8.58207 3.76361 7.34209 4.67785 6.42785C5.59209 5.51361 6.83207 5 8.125 5ZM30.875 5C32.1679 5 33.4079 5.51361 34.3221 6.42785C35.2364 7.34209 35.75 8.58207 35.75 9.875C35.75 11.1679 35.2364 12.4079 34.3221 13.3221C33.4079 14.2364 32.1679 14.75 30.875 14.75C28.99 14.75 27.365 13.6775 26.5525 12.1175C27.95 10.3138 28.6325 8.00625 28.3887 5.6825C29.12 5.24375 29.965 5 30.875 5ZM8.9375 21.6562C8.9375 18.2925 13.6663 15.5625 19.5 15.5625C25.3337 15.5625 30.0625 18.2925 30.0625 21.6562V24.5H8.9375V21.6562ZM0 24.5V22.0625C0 19.8037 3.07125 17.9025 7.23125 17.35C6.2725 18.455 5.6875 19.9825 5.6875 21.6562V24.5H0ZM39 24.5H33.3125V21.6562C33.3125 19.9825 32.7275 18.455 31.7687 17.35C35.9287 17.9025 39 19.8037 39 22.0625V24.5Z" fill="black"/>
</svg>
