<svg width="19" height="21" viewBox="0 0 19 21" fill="none" xmlns="http://www.w3.org/2000/svg">
<path d="M16.4688 2.85449H15.4688V0.854492H13.4688V2.85449H5.46875V0.854492H3.46875V2.85449H2.46875C1.36875 2.85449 0.46875 3.75449 0.46875 4.85449V18.8545C0.46875 19.9645 1.36875 20.8545 2.46875 20.8545H16.4688C17.5788 20.8545 18.4688 19.9645 18.4688 18.8545V4.85449C18.4688 3.75449 17.5788 2.85449 16.4688 2.85449ZM16.4688 18.8545H2.46875V8.85449H16.4688V18.8545ZM2.46875 6.85449V4.85449H16.4688V6.85449H2.46875ZM4.46875 10.8545H14.4688V12.8545H4.46875V10.8545ZM4.46875 14.8545H11.4688V16.8545H4.46875V14.8545Z" fill="black"/>
</svg>
