<svg width="33" height="33" viewBox="0 0 33 33" fill="none" xmlns="http://www.w3.org/2000/svg">
<path d="M14.8906 26.3467H18.1406V23.0967H14.8906V26.3467ZM16.5156 0.34668C14.3816 0.34668 12.2686 0.766998 10.297 1.58364C8.32548 2.40028 6.53409 3.59724 5.02514 5.10619C1.97767 8.15366 0.265625 12.2869 0.265625 16.5967C0.265625 20.9064 1.97767 25.0397 5.02514 28.0872C6.53409 29.5961 8.32548 30.7931 10.297 31.6097C12.2686 32.4264 14.3816 32.8467 16.5156 32.8467C20.8254 32.8467 24.9586 31.1346 28.0061 28.0872C31.0536 25.0397 32.7656 20.9064 32.7656 16.5967C32.7656 14.4627 32.3453 12.3496 31.5287 10.3781C30.712 8.40653 29.5151 6.61515 28.0061 5.10619C26.4972 3.59724 24.7058 2.40028 22.7342 1.58364C20.7627 0.766998 18.6496 0.34668 16.5156 0.34668ZM16.5156 29.5967C9.34937 29.5967 3.51562 23.7629 3.51562 16.5967C3.51562 9.43043 9.34937 3.59668 16.5156 3.59668C23.6819 3.59668 29.5156 9.43043 29.5156 16.5967C29.5156 23.7629 23.6819 29.5967 16.5156 29.5967ZM16.5156 6.84668C14.7917 6.84668 13.1384 7.5315 11.9194 8.75049C10.7004 9.96947 10.0156 11.6228 10.0156 13.3467H13.2656C13.2656 12.4847 13.608 11.6581 14.2175 11.0486C14.827 10.4391 15.6537 10.0967 16.5156 10.0967C17.3776 10.0967 18.2042 10.4391 18.8137 11.0486C19.4232 11.6581 19.7656 12.4847 19.7656 13.3467C19.7656 16.5967 14.8906 16.1904 14.8906 21.4717H18.1406C18.1406 17.8154 23.0156 17.4092 23.0156 13.3467C23.0156 11.6228 22.3308 9.96947 21.1118 8.75049C19.8928 7.5315 18.2395 6.84668 16.5156 6.84668Z" fill="white"/>
</svg>
