<svg width="27" height="31" viewBox="0 0 27 31" fill="none" xmlns="http://www.w3.org/2000/svg">
<path d="M13.5 0.875C6.3175 0.875 0.5 3.78375 0.5 7.375C0.5 10.9663 6.3175 13.875 13.5 13.875C20.6825 13.875 26.5 10.9663 26.5 7.375C26.5 3.78375 20.6825 0.875 13.5 0.875ZM0.5 10.625V15.5C0.5 19.0912 6.3175 22 13.5 22C20.6825 22 26.5 19.0912 26.5 15.5V10.625C26.5 14.2163 20.6825 17.125 13.5 17.125C6.3175 17.125 0.5 14.2163 0.5 10.625ZM0.5 18.75V23.625C0.5 27.2162 6.3175 30.125 13.5 30.125C20.6825 30.125 26.5 27.2162 26.5 23.625V18.75C26.5 22.3412 20.6825 25.25 13.5 25.25C6.3175 25.25 0.5 22.3412 0.5 18.75Z" fill="black"/>
</svg>
