<svg width="42" height="42" viewBox="0 0 42 42" fill="none" xmlns="http://www.w3.org/2000/svg">
<path d="M15.7262 0.25C19.8307 0.25 23.7672 1.88052 26.6695 4.78287C29.5719 7.68522 31.2024 11.6216 31.2024 15.7262C31.2024 19.5595 29.7976 23.0833 27.4881 25.7976L28.131 26.4405H30.0119L41.9167 38.3452L38.3452 41.9167L26.4405 30.0119V28.131L25.7976 27.4881C23.0833 29.7976 19.5595 31.2024 15.7262 31.2024C11.6216 31.2024 7.68522 29.5719 4.78287 26.6695C1.88052 23.7672 0.25 19.8307 0.25 15.7262C0.25 11.6216 1.88052 7.68522 4.78287 4.78287C7.68522 1.88052 11.6216 0.25 15.7262 0.25ZM15.7262 5.0119C9.77381 5.0119 5.0119 9.77381 5.0119 15.7262C5.0119 21.6786 9.77381 26.4405 15.7262 26.4405C21.6786 26.4405 26.4405 21.6786 26.4405 15.7262C26.4405 9.77381 21.6786 5.0119 15.7262 5.0119Z" fill="#4E6D16"/>
</svg>
