<svg xmlns="http://www.w3.org/2000/svg"  viewBox="0 0 24 24" width="384px" height="384px"><path d="M 12 2 A 1 1 0 0 0 11.292969 2.2949219 L 6.1601562 7.1347656 A 0.5 0.5 0 0 0 6.1484375 7.1445312 L 6.1464844 7.1464844 A 0.5 0.5 0 0 0 6 7.5 A 0.5 0.5 0 0 0 6.5 8 L 10 8 L 10 16 C 10 16.552 10.448 17 11 17 L 12 17 L 13 17 C 13.552 17 14 16.552 14 16 L 14 8 L 17.5 8 A 0.5 0.5 0 0 0 18 7.5 A 0.5 0.5 0 0 0 17.853516 7.1464844 L 17.822266 7.1171875 L 12.716797 2.3027344 A 1 1 0 0 0 12.683594 2.2714844 A 1 1 0 0 0 12 2 z M 3 20 A 1.0001 1.0001 0 1 0 3 22 L 21 22 A 1.0001 1.0001 0 1 0 21 20 L 3 20 z" fill="#4E6D16"/></svg>